solid probe
facet normal 0 0 0
  outer loop
    vertex 0 0 2
    vertex 40 0 2
    vertex 40 30 2
  endloop
endfacet
facet normal 0 0 0
  outer loop
    vertex 0 0 2
    vertex 40 30 2
    vertex 0 30 2
  endloop
endfacet
facet normal 0 0 0
  outer loop
    vertex 0 30 0
    vertex 0 0 0
    vertex 40 0 0
  endloop
endfacet
facet normal 0 0 0
  outer loop
    vertex 0 30 0
    vertex 40 0 0
    vertex 40 30 0
  endloop
endfacet
facet normal 0 0 0
  outer loop
    vertex 40 0 0
    vertex 40 0 2
    vertex 40 30 2
  endloop
endfacet
facet normal 0 0 0
  outer loop
    vertex 40 0 0
    vertex 40 30 2
    vertex 40 30 0
  endloop
endfacet
facet normal 0 0 0
  outer loop
    vertex 0 0 2
    vertex 0 0 0
    vertex 0 30 0
  endloop
endfacet
facet normal 0 0 0
  outer loop
    vertex 0 0 2
    vertex 0 30 0
    vertex 0 30 2
  endloop
endfacet
facet normal 0 0 0
  outer loop
    vertex 0 30 0
    vertex 40 30 0
    vertex 40 30 2
  endloop
endfacet
facet normal 0 0 0
  outer loop
    vertex 0 30 0
    vertex 40 30 2
    vertex 0 30 2
  endloop
endfacet
facet normal 0 0 0
  outer loop
    vertex 0 0 2
    vertex 40 0 2
    vertex 40 0 0
  endloop
endfacet
facet normal 0 0 0
  outer loop
    vertex 0 0 2
    vertex 40 0 0
    vertex 0 0 0
  endloop
endfacet
endsolid probe
